<?xml version="1.0" encoding="windows-1252"?>
<!-- Uploaded to: SVG Repo, www.svgrepo.com, Generator: SVG Repo Mixer Tools -->
<svg fill="#000000" height="800px" width="800px" version="1.1" id="Layer_1" xmlns="http://www.w3.org/2000/svg" xmlns:xlink="http://www.w3.org/1999/xlink" viewBox="0 0 500.004 500.004" xml:space="preserve">
<g>
	<g>
		<path d="M250,0c-53.876,0-97.696,43.832-97.696,97.708v50.62c0,53.88,43.82,97.712,97.696,97.712    c53.88,0,97.696-43.832,97.696-97.712v-50.62C347.697,43.832,303.88,0,250,0z"/>
	</g>
</g>
<g>
	<g>
		<path d="M465.456,373.364c-31.284-53.312-81.288-92.836-140.8-111.292c-1.38-0.428-2.872-0.064-3.9,0.952    c-27.684,27.296-62.084,48.592-70.684,53.736c-9.18-5.868-47.848-31.072-70.836-53.736c-1.024-1.016-2.528-1.38-3.9-0.952    c-59.52,18.46-109.52,57.984-140.792,111.296c-0.716,1.22-0.716,2.736,0,3.956c44.408,75.672,126.964,122.68,215.452,122.68    c88.492,0,171.052-47.008,215.46-122.68C466.176,376.1,466.176,374.584,465.456,373.364z M382.872,402.508    c0,2.156-2.052,3.804-4.204,3.804h-26.46c-2.156,0-4.508,1.852-4.508,4.012v27.364c0,2.152-1.152,3.796-3.308,3.796h-23.764    c-2.156,0-4.188-1.644-4.188-3.796v-27.364c-0.008-2.156-1.48-4.012-3.636-4.012h-27.6c-2.156,0-3.94-1.652-3.94-3.804v-23.56    c0-2.156,1.784-3.896,3.94-3.896h27.6c2.156,0,3.628-1.76,3.628-3.92v-27.396c0-2.156,2.032-3.856,4.188-3.856h23.508    c2.152,0,3.568,1.7,3.568,3.856v27.476c0,2.16,2.088,3.836,4.248,3.836h26.724c2.152,0,4.204,1.824,4.204,3.98V402.508z"/>
	</g>
</g>
</svg>